<?xml version="1.0" encoding="utf-8"?>
<!-- Generator: Adobe Illustrator 23.1.0, SVG Export Plug-In . SVG Version: 6.00 Build 0)  -->
<svg version="1.1" id="Layer_1" xmlns="http://www.w3.org/2000/svg" xmlns:xlink="http://www.w3.org/1999/xlink" x="0px" y="0px"
	 viewBox="0 0 159.7 197.4" style="enable-background:new 0 0 159.7 197.4;" xml:space="preserve">
<style type="text/css">
	.st0{fill:#FFFFFF;}
</style>
<g>
	<g>
		<path class="st0" d="M150.5,193.5c-51.3,0-102.5,0-153.8,0c0-61.5,0-123.1,0-184.6c51.3,0,102.5,0,153.8,0
			C150.5,70.4,150.5,132,150.5,193.5z M95.8,188.6c-0.8-0.5-1.6-1-2.4-1.5c-0.2,0.3-0.3,0.7-0.5,1C93.2,189.7,94.2,189.7,95.8,188.6
			c0.5,0,1,0.1,1.5,0.2c0.1-0.2,0.1-0.3,0.2-0.5c-0.5-0.3-1.1-0.6-1.9-1C95.7,188,95.7,188.3,95.8,188.6z M105.6,178.2
			c-1.4,0.3-2.8,0.6-4.4,0.9c0.3,0.6,0.5,1.3,0.7,1.9c0.9-0.3,1.8-0.4,2.3-0.8C104.9,179.7,105.1,178.8,105.6,178.2
			c0.8-0.3,1.6-0.6,2.4-0.8c-0.1-0.3-0.2-0.5-0.2-0.8c-0.8,0.1-1.5,0.2-2.3,0.4c-3-8.6-4.8-17.3-4-26.3c1.1-0.8,2.5-1.6,2.7-2.6
			c0.4-2-0.7-3.5-2.6-4.2c-1.7,0.7-3.9,3.7-4.1,6.3c-0.3,4.5-0.8,9-0.4,13.5c0.3,4.3,1.7,8.5,2.6,12.7c0.3-0.1,0.6-0.1,0.9-0.2
			c-0.1-0.8-0.1-1.6-0.3-2.3c-1.9-7.5-2.3-15.2-1.5-22.9c0.2-1.9,0.4-3.8,2.9-4.1c-0.5-0.5-0.8-0.9-1.1-1.2c0.3-0.2,0.6-0.3,0.8-0.5
			c0.6,1.1,1.2,2.1,2.1,3.7c-1.6-0.1-2.3-0.1-3.1-0.1c0,2.3,0.2,4.4,0,6.5c-0.6,6.1,0.6,12,2.5,17.8c0.5,1.4,1.8,2.6,2.7,3.9
			C105.6,177.3,105.6,177.7,105.6,178.2z M91.5,183c0,0.2,0.1,0.3,0,0.1C91.6,183.2,91.5,183.1,91.5,183
			c-0.8-11.3-0.9-22.8-5.2-33.8c-0.3,0.5-0.6,0.9-0.9,1.3c-0.2,0-0.4-0.1-0.6-0.1c0.1-1-0.2-2.4,0.3-3c0.6-0.7,1.9-0.9,3-1.3
			c-1.6-1.4-3.1-1.2-4.3,0.5c-1.5,2-0.5,4.3,2.8,6c0.7,4.9,1.4,10.2,2.2,15.4C89.7,173,90.6,178,91.5,183z M123.4,78.5
			c-0.1-0.1-0.1-0.2-0.1-0.2C123.2,78.3,123.3,78.3,123.4,78.5c0.2,0.4,0.3,0.9,0.6,1.4c3.7,7.4,4,14.9,1.2,22.6c-0.6,1.6-2,3-3,4.5
			c4.3-9.4,3.1-18.6,0-28.3c1.7-6.3-0.6-13.8,3.3-20.2c2-0.6,3.9-1.3,5.9-1.8c8.2-2.1,10.8-9.1,7.2-16.3c-2.4-4.8-5.2-9.6-8.4-13.9
			c-3.9-5.2-8.9-9.1-16-8.7c-2.8,0.2-5.5,0-7.7,0c-3.8-2.3-7-4.8-10.6-6.3c-5.6-2.3-11.4-1.1-17.1,0.6c-3.4,1-6.9,1.9-10.3,2.8
			c-1.6,0.4-3.2,0.6-4.7,1.2c-1.2,0.5-2.2,1.5-3.7,2.7c3-0.8,5.1-1.4,7.3-2c3.6-0.9,7.4-1.1,10.6-2.7c9.5-4.5,17.8-2.8,25.9,3.7
			c-0.9,0.1-1.5,0-2,0.2c-3.5,0.8-7.3,1-10.3,2.6c-6.7,3.8-13,8.2-19.3,12.5c-2.4,1.7-4.7,3.7-6.6,5.9c-4.4,5.1-8.6,10.4-12.9,15.6
			c-0.5,0.6-1.3,1.1-2.1,1.7c-0.3-3.7-0.4-7.1-1-10.4c-1-5.9-0.8-11.2,4.7-15.4c2.8-2.1,4.8-5.3,5.1-9.3c-2.7,3.3-5,6.7-7.9,9.5
			c-2.9,2.7-4.3,5.6-4,9.5c0.5,6,1,12,1.6,18.5c-1.3,1.1-2.6,2.4-4.2,3.6c-3.4,2.6-5.4,6-5.9,10.1c-0.4,2.8-0.1,5.7,0,8.5
			c0.1,3.9,2,6.5,5.6,8c0.5,0.2,1,0.8,1.1,0.8c-2.4,2-5.3,3.4-6.6,5.7c-1.4,2.4-1.2,5.6-1.8,8.8c-3.2,1-5.9,3.1-7.2,7.1
			c0.6-0.2,1-0.3,1.4-0.4c-0.6,4.2-0.5,4.4,0.8,5.2c0.7,2.9,1.3,5.3,2.1,8.3c-0.9,0.2-2.2,0.6-3.4,0.9c-6.5,1.2-11.6,4.4-15.2,10
			c-6.5,10.2-8,21.5-7.2,33.3c0.1,1.8,0.6,3.5,1,5.7c0.5-0.5,0.6-0.6,0.6-0.7c0-0.5,0-1-0.1-1.5c-1.2-11.6,0.2-22.9,5.3-33.5
			c3.2-6.7,8.7-10.4,15.8-12c1.4-0.3,2.9-0.5,4.2-0.1c3,0.9,6,2.1,8.9,3.3c4.1,1.7,8.1,3.6,12.1,5.3c-6.1-5-13.2-8-20.7-10
			c0-0.3,0-0.6-0.1-0.9c3.1-1.3,6.2-2.6,9.7-4c0,0,0-0.7,0.1-1.5c1-0.2,1.9-0.7,2.7-0.5c4.3,0.9,8.9,1.1,12.7,3
			c4.5,2.3,8.3,5.9,12.1,9.2c5,4.5,9.6,9.5,15.6,12.8c3.8,2.1,6.3,1.7,7.7-2.4c1.9-5.3,3.1-10.9,4.6-16.3c-0.3-0.1-0.7-0.2-1-0.3
			c-0.7,2.2-1.5,4.3-2.2,6.5c-0.9,2.9-1.5,5.9-2.5,8.8c-0.6,1.7-1.3,3.5-4.5,3.9c-5.4-4.7-11.4-9.6-17-15
			c-5.6-5.3-11.4-10.1-19.2-11.5c-0.1,0-0.2-0.3-0.3-0.4c1.4-2.1,2.8-4.2,4.2-6.3c1.3-2.1,2.9-4.2,3.8-6.5c0.9-2.4,1.1-5,1.7-7.7
			c2.6,4.5,4.8,8.9,7.6,12.9c2.6,3.8,5.5,7.8,10.2,8.8c5.3,1.2,10.6,0.6,15.5-2.2c0.7-0.4,1.4-0.7,1.8-1c0.7,2.7,1.4,5.3,2,7.6
			c1.6,0.4,2.4,0.6,3.4,0.8c0.4,0.8,0.7,1.6,0.8,1.8c1.8,0.2,3.1,0.3,4.3,0.4c0,2.8,0.4,5.2-0.1,7.3c-1.4,6.4-3.1,12.8-4.6,19.1
			c4.4-7,5.3-15.1,6-23.4c4.4,1.8,8.3,3.1,11.9,4.9c2,1,4.2,2.5,5.2,4.4c2.5,4.4,4.2,9.3,4.4,14.6c0.1,3.7,0.4,7.4,0.8,11
			c0.4,4,1.1,7.9,1.7,11.8c0.3,0,0.5-0.1,0.8-0.1c0-0.7,0-1.4,0-2.1c-0.5-7.1-0.6-14.1-1.5-21.1c-0.6-4.5-2-8.9-3.5-13.3
			c-1.2-3.5-3.7-5.7-7.3-7c-3.8-1.4-7.6-3-11.6-4.6c0.5-4.7-5.2-2.5-6.2-5.5c-1.4-0.1-2.5-0.2-3.9-0.2c-0.3-2.4-0.6-4.7-1-7.3
			c6.7-2.5,8.5-9.5,13.4-14c0.7,1.4,1.1,2.5,1.7,3.6c1.2,2.4,2.9,4.5,5.8,4.4c2.8-0.1,4.1-2.4,5.1-4.8c2.6-6.4,2.6-13,0.6-19.6
			C126.1,81.8,124.5,80.2,123.4,78.5z M94.7,180.4c0.4-0.1,0.7-0.2,1.1-0.4c-2.4-10.6-3.5-21.4-7-31.7c-0.3,0.1-0.5,0.1-0.8,0.2
			C90.3,159.1,92.5,169.8,94.7,180.4z M90.3,191.1c0.4,0.1,0.9,0.2,1.3,0.2c0.1-1.6,0.2-3.2,0.3-4.8c-0.3,0-0.5-0.1-0.8-0.1
			C90.9,188,90.6,189.5,90.3,191.1z M98.4,187.5c0.1-0.3,0.2-0.6,0.3-0.8c-0.7-0.2-1.3-0.4-2-0.6c-0.1,0.3-0.1,0.5-0.2,0.8
			C97.1,187.1,97.8,187.3,98.4,187.5z"/>
		<path d="M123.4,78.5c1.1,1.7,2.7,3.3,3.3,5.2c2,6.5,2,13.1-0.6,19.6c-0.9,2.4-2.3,4.7-5.1,4.8c-2.9,0.1-4.5-2-5.8-4.4
			c-0.6-1.1-1-2.2-1.7-3.6c-4.9,4.5-6.7,11.5-13.4,14c0.4,2.6,0.7,4.9,1,7.3c1.4,0.1,2.5,0.2,3.9,0.2c1,3,6.7,0.8,6.2,5.5
			c4,1.6,7.8,3.2,11.6,4.6c3.5,1.2,6.1,3.5,7.3,7c1.5,4.3,2.9,8.8,3.5,13.3c0.9,7,1.1,14.1,1.5,21.1c0,0.7,0,1.4,0,2.1
			c-0.3,0-0.5,0.1-0.8,0.1c-0.6-3.9-1.3-7.9-1.7-11.8c-0.4-3.7-0.6-7.4-0.8-11c-0.2-5.3-1.8-10.1-4.4-14.6c-1.1-1.9-3.2-3.4-5.2-4.4
			c-3.6-1.8-7.5-3.1-11.9-4.9c-0.7,8.3-1.6,16.4-6,23.4c1.6-6.4,3.3-12.7,4.6-19.1c0.5-2.1,0.1-4.5,0.1-7.3
			c-1.3-0.1-2.6-0.2-4.3-0.4c-0.1-0.2-0.5-1-0.8-1.8c-1-0.2-1.9-0.4-3.4-0.8c-0.6-2.3-1.3-4.9-2-7.6c-0.5,0.3-1.2,0.6-1.8,1
			c-4.9,2.8-10.2,3.4-15.5,2.2c-4.8-1-7.7-5-10.2-8.8c-2.7-4.1-5-8.5-7.6-12.9c-0.6,2.7-0.8,5.3-1.7,7.7c-0.9,2.3-2.5,4.4-3.8,6.5
			c-1.3,2.1-2.8,4.2-4.2,6.3c0.1,0.2,0.2,0.4,0.3,0.4c7.8,1.4,13.6,6.2,19.2,11.5c5.6,5.3,11.6,10.3,17,15c3.2-0.3,3.9-2.2,4.5-3.9
			c1-2.9,1.7-5.9,2.5-8.8c0.7-2.2,1.5-4.3,2.2-6.5c0.3,0.1,0.7,0.2,1,0.3c-1.5,5.4-2.7,11-4.6,16.3c-1.5,4.1-3.9,4.5-7.7,2.4
			c-6-3.3-10.6-8.3-15.6-12.8c-3.8-3.4-7.7-7-12.1-9.2c-3.8-1.9-8.4-2.2-12.7-3c-0.8-0.2-1.8,0.3-2.7,0.5c0,0.9-0.1,1.5-0.1,1.5
			c-3.5,1.5-6.6,2.8-9.7,4c0,0.3,0,0.6,0.1,0.9c7.6,2,14.6,5,20.7,10c-4-1.8-8-3.6-12.1-5.3c-2.9-1.2-5.9-2.4-8.9-3.3
			c-1.3-0.4-2.8-0.1-4.2,0.1c-7.1,1.5-12.5,5.2-15.8,12c-5.1,10.7-6.5,21.9-5.3,33.5c0,0.5,0.1,1,0.1,1.5c0,0.1-0.1,0.1-0.6,0.7
			c-0.4-2.2-0.9-3.9-1-5.7c-0.8-11.8,0.7-23.1,7.2-33.3c3.6-5.6,8.7-8.8,15.2-10c1.3-0.2,2.5-0.7,3.4-0.9c-0.8-3-1.4-5.5-2.1-8.3
			c-1.3-0.8-1.4-0.9-0.8-5.2c-0.4,0.1-0.8,0.2-1.4,0.4c1.3-4.1,4-6.2,7.2-7.1c0.6-3.2,0.4-6.4,1.8-8.8c1.3-2.3,4.2-3.7,6.6-5.7
			c-0.1-0.1-0.5-0.6-1.1-0.8c-3.6-1.5-5.5-4.2-5.6-8c-0.1-2.8-0.3-5.7,0-8.5c0.5-4.1,2.6-7.5,5.9-10.1c1.5-1.2,2.9-2.5,4.2-3.6
			c-0.6-6.5-1.1-12.5-1.6-18.5c-0.3-3.9,1.1-6.8,4-9.5c2.9-2.8,5.2-6.2,7.9-9.5c-0.3,4-2.3,7.2-5.1,9.3c-5.5,4.1-5.7,9.4-4.7,15.4
			c0.5,3.3,0.6,6.7,1,10.4c0.8-0.6,1.6-1.1,2.1-1.7c4.3-5.2,8.5-10.5,12.9-15.6c1.9-2.2,4.2-4.3,6.6-5.9c6.3-4.4,12.6-8.8,19.3-12.5
			c3-1.7,6.8-1.8,10.3-2.6c0.6-0.1,1.2-0.1,2-0.2c-8.1-6.5-16.4-8.2-25.9-3.7c-3.2,1.5-7.1,1.8-10.6,2.7c-2.1,0.5-4.3,1.2-7.3,2
			c1.5-1.2,2.5-2.2,3.7-2.7c1.5-0.6,3.2-0.8,4.7-1.2c3.4-0.9,6.9-1.8,10.3-2.8c5.7-1.7,11.5-3,17.1-0.6c3.6,1.5,6.8,4,10.6,6.3
			c2.2,0,5,0.1,7.7,0c7.1-0.4,12.1,3.5,16,8.7c3.2,4.3,6,9.1,8.4,13.9c3.6,7.2,1,14.2-7.2,16.3c-2,0.5-3.9,1.2-5.9,1.8
			c-3.9,6.4-1.6,13.9-3.3,20.2c3.1,9.7,4.2,18.9,0,28.3c1-1.5,2.4-2.8,3-4.5c2.8-7.7,2.5-15.2-1.2-22.6
			C123.7,79.4,123.6,78.9,123.4,78.5L123.4,78.5z M40.9,81.5c0-0.3-0.1-0.5,0-0.1C40.7,81.1,40.8,81.3,40.9,81.5
			c-0.1,3.8,2.4,5.6,5.6,6.9C44.6,86.2,42.8,83.8,40.9,81.5z M64.4,47.7c-3.3,3.6-6.6,7.2-9.9,10.8C58.7,55.7,62.6,52.6,64.4,47.7
			c0.1-0.1,0.2-0.2,0.1-0.1C64.5,47.4,64.4,47.6,64.4,47.7z M61.8,55c-5.4,4.9-10.9,9.8-16.3,14.7c-2.4,2.2-2.8,3.7-1.7,6.7
			c0.6-3.9,0.7-4.2,4-6.7c1.1-0.9,2.3-1.6,3.4-2.6C55.4,63.6,59.6,60.2,61.8,55L61.8,55L61.8,55z M51.9,82
			c-4.7,5.6-6.1,12.1-4.7,19.3c0.7,3.5,2.4,6.4,6.2,8.4c-3.9-6.8-4.4-13.6-3.3-20.6C50.5,86.7,51.3,84.4,51.9,82l0.1,0L51.9,82z
			 M121.5,64.3c0.7-1.7,1.4-3.3,2-4.7c-0.8-1.2-1.3-1.9-1.8-2.7c0.2-0.1,0.4-0.2,0.6-0.3c0.5,0.2,1,0.5,1.4,0.7
			c0.2-0.3,0.4-0.6,0.5-0.8c-1-0.6-1.9-1.7-3-1.8c-1.9-0.2-3.8,0-5.7,0.2c-2.2,0.3-4.3,0.7-7.1,1.2c0.5-1.9,0.8-3,1.1-3.9
			c4.3-2.2,8.4-2.9,12.8-1.6c0.4-0.7,0.8-1.3,1.2-2c-4-8.5-7.9-17-17.1-21.1c-4.7,4.3-9.2,8.4-13.4,12.3c2.9,2.8,5.8,5.6,8.9,8.6
			c-1,1.6-1.7,2.7-2.5,4c-4.8-3.1-7.9-8-13.9-9.1c-4.1,2.1-8.7,2.8-13.2,0.8c-0.2,2.7,0.1,5.2-0.6,7.3c-1.5,4.2-3.5,8.2-5.4,12.3
			c-0.4,1-1,2-1.4,3c-0.7,1.7-1.3,3.3-2.1,5.3c-1.3-2.5-2.3-4.4-3.3-6.2c-0.9,1.9-1.8,3.5-2.7,5.4c0.5,0.9,1.2,2.1,2,3.6
			c-0.9,0.7-1.6,1.2-2.7,2c-0.7-1.1-1.2-1.9-2-3.1c1.2,0.3,1.9,0.5,2.8,0.8c-0.8-1.5-1.4-2.5-1.9-3.4c1-1.8,2-3.3,2.9-4.9
			c-0.2-0.1-0.4-0.2-0.6-0.3c-2.6,2.3-5.2,4.5-7.8,6.8c1.2,2.2,2.5,4.3,3.7,6.5c0.7-0.1,1.4-0.2,2.5-0.3c-0.4,1.1-0.8,1.8-1.1,2.5
			c0.2,0.2,0.5,0.5,0.7,0.7c1.5-1.1,3.1-2.2,4.8-3.4c1.2,5.8,3,11.2,6.6,15.6c2.2,2.8,4.8,5.3,7.6,7.5c4.6,3.6,9.1,7.3,14.2,10
			c7,3.7,13.7,1.1,17.9-5.6c2-3.3,4.7-6.1,7-9.3c1.3-1.8,2.7-3.6,3.4-5.6C120.4,82.7,121.6,73.6,121.5,64.3
			C121.6,64.3,121.5,64.3,121.5,64.3z M118.3,19.9c0-0.2,0-0.4,0-0.7c-6.2,0.3-12.4,0.4-18.6,1c-3.1,0.3-6.5,0.9-9.1,2.5
			c-7.3,4.4-14.2,9.3-21.2,14.1c-1.4,1-2.5,2.4-4.2,4.1c3.8,1.1,6.9,2.3,10.1,2.9c1.9,0.4,4.1,0.2,6-0.4c8.8-2.9,15.6-8.7,21.9-15.2
			c2-2.1,4.6-3.7,7.2-5C112.9,21.7,115.7,20.9,118.3,19.9z M122.2,81.1c-1.9,5.9-3.6,11.2-5.4,16.8c0.7,2.6,1.5,5.3,5.1,6.9
			C123.9,97,123.7,89.3,122.2,81.1z M61,91.5c-0.3,2.8-0.4,6-1.1,9.1c-0.7,2.9-2.2,5.7-3.2,8.3C60.6,107.5,62.9,99,61,91.5z
			 M40.4,102.4c0.3,0.2,0.5,0.3,0.8,0.5c1-1.3,1.9-2.6,2.9-3.9c-0.3-0.2-0.5-0.4-0.8-0.6C42.2,99.7,41.3,101.1,40.4,102.4z
			 M42.6,96.7c-0.1-0.2-0.2-0.3-0.4-0.5c-0.6,0.5-1.2,1-1.8,1.4c0.1,0.2,0.2,0.3,0.4,0.5C41.4,97.7,42,97.2,42.6,96.7z M124.1,50.4
			c-0.2,0-0.3,0-0.4,0c0,0.1,0.1,0.2,0.1,0.2C123.8,50.5,124,50.4,124.1,50.4z"/>
		<path d="M105.6,176.8c-0.9-1.3-2.2-2.5-2.7-3.9c-1.9-5.8-3.1-11.6-2.5-17.8c0.2-2.1,0-4.2,0-6.5c0.8,0,1.5,0.1,3.1,0.1
			c-0.9-1.6-1.5-2.7-2.1-3.7c-0.3,0.2-0.6,0.3-0.8,0.5c0.3,0.4,0.6,0.7,1.1,1.2c-2.5,0.4-2.7,2.2-2.9,4.1
			c-0.8,7.7-0.4,15.3,1.5,22.9c0.2,0.7,0.2,1.5,0.3,2.3c-0.3,0.1-0.6,0.1-0.9,0.2c-0.9-4.2-2.2-8.5-2.6-12.7
			c-0.4-4.5,0.1-9,0.4-13.5c0.2-2.6,2.4-5.5,4.1-6.3c1.9,0.8,3.1,2.2,2.6,4.2c-0.2,1.1-1.6,1.9-2.7,2.6
			C100.8,159.5,102.6,168.3,105.6,176.8L105.6,176.8z"/>
		<path d="M91.5,183c-0.9-5-1.8-9.9-2.6-14.9c-0.8-5.2-1.5-10.5-2.2-15.4c-3.4-1.8-4.3-4-2.8-6c1.2-1.7,2.7-2,4.3-0.5
			c-1.1,0.4-2.4,0.6-3,1.3c-0.5,0.7-0.3,2-0.3,3c0.2,0,0.4,0.1,0.6,0.1c0.3-0.4,0.6-0.9,0.9-1.3C90.6,160.1,90.6,171.6,91.5,183
			L91.5,183z"/>
		<path d="M94.7,180.4c-2.2-10.6-4.5-21.3-6.7-31.9c0.3-0.1,0.5-0.1,0.8-0.2c3.5,10.3,4.6,21.2,7,31.7
			C95.5,180.2,95.1,180.3,94.7,180.4z"/>
		<path d="M105.6,178.1c-0.4,0.7-0.7,1.6-1.3,2.1c-0.5,0.4-1.4,0.5-2.3,0.8c-0.2-0.6-0.5-1.3-0.7-1.9
			C102.8,178.7,104.2,178.4,105.6,178.1L105.6,178.1z"/>
		<path d="M90.3,191.1c0.3-1.5,0.5-3.1,0.8-4.6c0.3,0,0.5,0.1,0.8,0.1c-0.1,1.6-0.2,3.2-0.3,4.8C91.2,191.2,90.8,191.2,90.3,191.1z"
			/>
		<path d="M95.7,188.5c-1.5,1.2-2.5,1.2-2.9-0.5c0.2-0.3,0.3-0.7,0.5-1C94.1,187.6,94.9,188.1,95.7,188.5L95.7,188.5z"/>
		<path d="M105.6,178.2c0-0.4,0-0.9,0-1.3l-0.1,0.1c0.8-0.1,1.5-0.2,2.3-0.4c0.1,0.3,0.2,0.5,0.2,0.8
			C107.2,177.6,106.4,177.8,105.6,178.2L105.6,178.2z"/>
		<path d="M98.4,187.5c-0.6-0.2-1.3-0.4-1.9-0.7c0.1-0.3,0.1-0.5,0.2-0.8c0.7,0.2,1.3,0.4,2,0.6C98.6,186.9,98.5,187.2,98.4,187.5z"
			/>
		<path d="M95.8,188.6c0-0.3-0.1-0.6-0.2-1.3c0.8,0.4,1.3,0.7,1.9,1c-0.1,0.2-0.1,0.3-0.2,0.5C96.7,188.7,96.2,188.6,95.8,188.6
			L95.8,188.6z"/>
		<path d="M91.4,183C91.5,183.1,91.6,183.2,91.4,183C91.5,183.3,91.5,183.1,91.4,183L91.4,183z"/>
		<path d="M123.4,78.4c-0.1-0.1-0.2-0.2-0.2-0.1C123.2,78.3,123.3,78.4,123.4,78.4L123.4,78.4z"/>
		<path class="st0" d="M121.6,64.3c0.1,9.3-1.1,18.4-4.4,27.1c-0.8,2-2.2,3.9-3.4,5.6c-2.3,3.1-5,6-7,9.3
			c-4.2,6.7-10.9,9.4-17.9,5.6c-5.1-2.7-9.7-6.5-14.2-10c-2.8-2.2-5.4-4.8-7.6-7.5c-3.6-4.4-5.4-9.8-6.6-15.6
			c-1.7,1.2-3.2,2.3-4.8,3.4c-0.2-0.2-0.5-0.5-0.7-0.7c0.3-0.7,0.6-1.4,1.1-2.5c-1.1,0.1-1.9,0.3-2.5,0.3c-1.2-2.2-2.5-4.3-3.7-6.5
			c2.6-2.3,5.2-4.5,7.8-6.8c0.2,0.1,0.4,0.2,0.6,0.3c-0.9,1.6-1.8,3.1-2.9,4.9c0.5,1,1.1,2,1.9,3.4c-1-0.3-1.6-0.4-2.8-0.8
			c0.8,1.2,1.3,2,2,3.1c1-0.8,1.8-1.4,2.7-2c-0.8-1.5-1.5-2.7-2-3.6c1-1.9,1.8-3.5,2.7-5.4c1,1.8,2,3.7,3.3,6.2
			c0.8-2,1.4-3.7,2.1-5.3c0.4-1,0.9-2,1.4-3c1.8-4.1,3.9-8.1,5.4-12.3c0.7-2.1,0.4-4.6,0.6-7.3c4.5,2,9.1,1.3,13.2-0.8
			c5.9,1.2,9,6,13.9,9.1c0.8-1.3,1.5-2.4,2.5-4c-3.1-3-6-5.8-8.9-8.6c4.2-3.9,8.8-8,13.4-12.3c9.2,4.1,13.1,12.6,17.1,21.1
			c-0.4,0.7-0.7,1.3-1.2,2c-4.4-1.4-8.5-0.7-12.8,1.6c-0.2,0.9-0.6,2-1.1,3.9c2.8-0.5,4.9-0.9,7.1-1.2c1.9-0.2,3.9-0.4,5.7-0.2
			c1,0.1,2,1.2,3,1.8c-0.2,0.3-0.4,0.6-0.5,0.8c-0.5-0.2-1-0.5-1.4-0.7c-0.2,0.1-0.4,0.2-0.6,0.3c0.5,0.8,1,1.6,1.8,2.7
			C122.9,61,122.2,62.6,121.6,64.3c-0.5-1.2-1-2.5-1.2-3.8c-0.2-2-1.4-2.8-3.2-3c-2.2-0.3-4.4-0.2-6.1,1.7c0.2,0.1,0.3,0.2,0.5,0.2
			l-0.1-0.1c-1.4,1.1-2.7,2.1-4.5,3.4c1.7,0.6,2.6,0.9,3.6,1.2c-0.4,0.5-0.8,1.1-1.4,1.9c2.7,0,4.9,0,7.2,0c0.4-1.6,0.6-2.9,0.9-4.2
			l0,0c0.7,1.1,1.4,2.1,2.2,3.3C120.2,64.7,120.9,64.5,121.6,64.3z M103.6,93.3c0.1,0.1,0.3,0.1,0.4,0.2c0-0.2-0.1-0.3-0.1-0.4
			c-0.8-1-1.6-1.8-2.8-0.7c-0.9,0.1-1.8,0.1-2.7,0.2c0-0.2,0.1-0.4,0.1-0.6c-1.5-0.7-3-1.5-4.5-1.9c-2.9-0.7-5.9-1.2-8.8-1.8
			c-0.6-0.8-1.2-1.5-2.1-2.7c-0.9,0.5-2.3,1.2-3.6,1.9c0.1,0.2,0.2,0.4,0.2,0.6c0.9-0.1,1.8-0.2,2.9-0.4c0.7,1.5,1.3,2.8,2,4.2
			c0.4,7.1,10.8,13.4,13.9,9.4c-6.9,0.2-10.9-3.5-13.3-9.4c1.3,0.6,2.6,1.2,3.8,1.8L89,93.8l0-0.1c-1.1-1.4-2.1-2.8-3.2-4.3
			c1.9,0.6,3.8,1.4,5.7,1.9c2.4,0.7,4.9,1.2,7.4,1.7c0,0.3,0,0.6,0,0.9c0.8-0.4,1.6-0.8,2.4-1.2C102.1,92.9,102.9,93.1,103.6,93.3z
			 M80,58.1c1.2,0.4,2.2,0.8,3.2,1.2c-1.5,0.8-2.8,1.4-4.1,2.1c0.1,0.3,0.2,0.6,0.3,0.9c2.7,0.5,5.3,0.9,8.1,1.4
			c1-1.6,1.8-3.1,2.7-4.6c1.1,1,2.2,1.9,3.3,2.9c0.2-0.2,0.4-0.4,0.6-0.7c-1.1-3.2-3.8-5-6.8-6c-4-1.3-7.9-0.4-11.4,1.8
			c-0.2,0.4-0.4,0.7-0.5,1.1c0.6,0.6,1.2,1.1,1.9,1.7C78.4,59.1,79.1,58.6,80,58.1z M110.3,82c3-3.2,2.7-5.8-0.3-8
			c-1.1-0.8-2.3-1.9-2.7-3.1c-1.3-3.8-2.1-7.7,0.6-11.4c0.2-0.3,0-0.8,0-1.4c-4.1,3.2-4.6,8.7-1.7,14.7c-1.1,0.8-2.2,1.6-3.8,2.8
			C110.6,74.9,111.5,75.7,110.3,82z M103.5,86.5c-0.9-0.8-1.5-1.4-1.6-1.5c-2.7-0.6-4.7-1-6.5-1.4c-0.2-1.4-0.4-2.2-0.5-3
			c-0.2,0-0.4-0.1-0.6-0.1c-0.4,0.7-0.8,1.5-1.1,2c1.5,3.7,4.5,3.6,7.3,3.5c2.9,2.8,6.8,1.7,8.3-2.3C107,84.7,105.2,85.6,103.5,86.5
			z M94.6,57.1c-4.4-7.1-14.8-8.5-17.8-2.9C83.4,49.2,88.7,53.6,94.6,57.1z M93.7,95.6c4,4.2,5.2,4.3,6.9,0.9c-1.1,0.4-2,0.7-2.8,1
			C96.3,96.8,95,96.2,93.7,95.6z M90.9,65.4c-0.1-0.4-0.2-0.7-0.4-1.1c-1.2,0.4-2.4,0.8-3.6,1.3c0.1,0.3,0.2,0.5,0.3,0.8
			C88.4,66.1,89.6,65.7,90.9,65.4z M106.2,95.7c-0.1-0.3-0.1-0.7-0.2-1c-1,0.4-2,0.7-2.9,1c0.1,0.3,0.2,0.5,0.3,0.8
			C104.3,96.3,105.2,96,106.2,95.7z M110.7,69.9c0.3-0.3,0.6-0.6,0.9-0.9c-0.5-0.4-0.9-0.7-1.4-1.1c-0.2,0.3-0.5,0.5-0.7,0.8
			C109.9,69.1,110.3,69.5,110.7,69.9z"/>
		<path class="st0" d="M118.3,19.9c-2.6,1-5.4,1.8-7.9,3.2c-2.6,1.4-5.2,3-7.2,5c-6.4,6.5-13.1,12.4-21.9,15.2
			c-1.9,0.6-4.1,0.8-6,0.4c-3.2-0.6-6.3-1.8-10.1-2.9c1.7-1.6,2.8-3.1,4.2-4.1c7-4.8,13.9-9.7,21.2-14.1c2.6-1.6,6-2.2,9.1-2.5
			c6.2-0.6,12.4-0.7,18.6-1C118.4,19.4,118.4,19.6,118.3,19.9z"/>
		<path class="st0" d="M122.2,81.1c1.5,8.2,1.8,15.8-0.3,23.7c-3.6-1.6-4.4-4.3-5.1-6.9C118.6,92.4,120.3,87,122.2,81.1z"/>
		<path class="st0" d="M51.9,82c-0.6,2.4-1.3,4.7-1.7,7.1c-1.1,7-0.7,13.8,3.3,20.6c-3.8-2-5.5-4.9-6.2-8.4
			C45.8,94.1,47.2,87.7,51.9,82C51.9,82,51.9,82,51.9,82z"/>
		<path class="st0" d="M61.8,55c-2.2,5.1-6.4,8.6-10.6,12c-1.1,0.9-2.3,1.7-3.4,2.6c-3.3,2.5-3.5,2.8-4,6.7c-1.1-3-0.7-4.5,1.7-6.7
			C51,64.8,56.4,59.9,61.8,55L61.8,55z"/>
		<path class="st0" d="M61,91.5c1.9,7.4-0.3,16-4.4,17.4c1-2.6,2.5-5.4,3.2-8.3C60.6,97.6,60.6,94.4,61,91.5z"/>
		<path class="st0" d="M64.3,47.6c-1.7,5-5.6,8-9.8,10.8C57.8,54.9,61.1,51.3,64.3,47.6L64.3,47.6z"/>
		<path class="st0" d="M40.9,81.5c1.9,2.3,3.7,4.6,5.6,6.9C43.3,87.1,40.9,85.3,40.9,81.5L40.9,81.5z"/>
		<path class="st0" d="M40.4,102.4c0.9-1.3,1.9-2.7,2.8-4c0.3,0.2,0.5,0.4,0.8,0.6c-1,1.3-1.9,2.6-2.9,3.9
			C40.9,102.7,40.6,102.6,40.4,102.4z"/>
		<path class="st0" d="M42.6,96.7c-0.6,0.5-1.2,1-1.8,1.4c-0.1-0.2-0.2-0.3-0.4-0.5c0.6-0.5,1.2-1,1.8-1.4
			C42.3,96.4,42.5,96.6,42.6,96.7z"/>
		<path class="st0" d="M41,81.5C40.8,81.3,40.7,81.1,41,81.5C40.8,81,40.9,81.3,41,81.5L41,81.5z"/>
		<path class="st0" d="M124.1,50.4c-0.1,0.1-0.2,0.2-0.4,0.2c0-0.1-0.1-0.2-0.1-0.2C123.8,50.4,123.9,50.4,124.1,50.4z"/>
		<path class="st0" d="M64.4,47.7c0.1-0.1,0.1-0.3,0.1-0.1C64.6,47.5,64.4,47.6,64.4,47.7L64.4,47.7z"/>
		<polygon class="st0" points="51.9,82 52,82 51.9,82 		"/>
		<polygon class="st0" points="61.8,55 61.9,54.9 61.8,55 		"/>
		<path d="M80,58.1c-0.9,0.6-1.6,1-2.8,1.8c-0.6-0.6-1.2-1.1-1.9-1.7c0.2-0.4,0.4-0.7,0.5-1.1c3.5-2.1,7.4-3,11.4-1.8
			c3.1,1,5.7,2.8,6.8,6c-0.2,0.2-0.4,0.4-0.6,0.7c-1.1-1-2.2-1.9-3.3-2.9c-0.9,1.5-1.7,2.9-2.7,4.6c-2.7-0.5-5.4-0.9-8.1-1.4
			c-0.1-0.3-0.2-0.6-0.3-0.9c1.3-0.7,2.6-1.3,4.1-2.1C82.2,58.9,81.1,58.5,80,58.1z"/>
		<path d="M111.6,59.3c-0.2-0.1-0.3-0.2-0.5-0.2c1.7-1.8,3.8-2,6.1-1.7c1.7,0.2,2.9,1,3.2,3c0.2,1.3,0.7,2.6,1.1,3.9l0.1-0.1
			c-0.7,0.2-1.3,0.5-2,0.7c-0.8-1.2-1.5-2.2-2.2-3.3l-0.1,0l0.2-0.1c-0.3,1.3-0.6,2.6-0.9,4.2c-2.3,0-4.5,0-7.2,0
			c0.6-0.9,1-1.4,1.4-1.9c-1-0.3-1.9-0.6-3.6-1.2C108.9,61.3,110.2,60.3,111.6,59.3c2.5,0.1,5,0.3,7.5,0.5
			C116.7,57.5,114.2,58,111.6,59.3z"/>
		<path d="M110.3,82c1.2-6.3,0.3-7.1-7.9-6.3c1.6-1.2,2.7-2,3.8-2.8c-2.9-6-2.3-11.5,1.7-14.7c0,0.6,0.2,1.1,0,1.4
			c-2.8,3.7-1.9,7.6-0.6,11.4c0.4,1.2,1.6,2.3,2.7,3.1C113,76.2,113.3,78.8,110.3,82z"/>
		<path d="M103.5,86.5c1.7-0.9,3.5-1.8,5.3-2.7c-1.6,4-5.5,5.1-8.3,2.3c-2.8,0-5.8,0.2-7.3-3.5c0.3-0.5,0.7-1.2,1.1-2
			c0.2,0,0.4,0.1,0.6,0.1c0.1,0.8,0.3,1.6,0.5,3c1.8,0.4,3.8,0.8,6.5,1.4C102,85.1,102.6,85.7,103.5,86.5z"/>
		<path d="M94.6,57.1c-5.9-3.5-11.2-7.9-17.8-2.9C79.8,48.6,90.2,50,94.6,57.1z"/>
		<path d="M85.3,91.9c2.4,5.9,6.4,9.6,13.3,9.4c-3.1,4-13.5-2.3-13.9-9.4l0,0C84.8,92,85.1,92,85.3,91.9L85.3,91.9z"/>
		<path d="M85.2,88.3c2.9,0.6,5.9,1.1,8.8,1.8c1.6,0.4,3,1.3,4.5,1.9c0,0.2-0.1,0.4-0.1,0.6c0.9-0.1,1.8-0.1,2.7-0.2
			c0.1,0.1,0.2,0.3,0.3,0.4c-0.8,0.4-1.6,0.8-2.4,1.2c0-0.3,0-0.6,0-0.9c-2.5-0.6-5-1.1-7.4-1.7c-1.9-0.5-3.8-1.2-5.7-1.9l0.1,0.1
			c-0.2-0.2-0.4-0.4-0.7-0.7l0,0.1C85.3,88.7,85.3,88.5,85.2,88.3L85.2,88.3z"/>
		<path d="M85.9,89.5c1.1,1.4,2.1,2.8,3.2,4.3l0.1,0c-1.3-0.6-2.6-1.2-3.8-1.8l0.1,0.1c-0.2,0-0.5,0-0.7,0l0,0
			c-0.6-1.4-1.3-2.7-2-4.2c-1.1,0.1-2,0.3-2.9,0.4c-0.1-0.2-0.2-0.4-0.2-0.6c1.4-0.7,2.7-1.4,3.6-1.9c0.9,1.1,1.5,1.9,2.1,2.7l0,0
			c0.1,0.1,0.2,0.2,0.2,0.2c0,0.2-0.1,0.3-0.2,0.5l0-0.1C85.5,89.1,85.7,89.3,85.9,89.5L85.9,89.5z"/>
		<path d="M93.7,95.6c1.3,0.6,2.7,1.2,4.1,1.9c0.8-0.3,1.8-0.6,2.8-1C98.8,99.8,97.7,99.8,93.7,95.6z"/>
		<path d="M90.9,65.4c-1.2,0.3-2.5,0.7-3.7,1c-0.1-0.3-0.2-0.5-0.3-0.8c1.2-0.4,2.4-0.8,3.6-1.3C90.6,64.7,90.7,65,90.9,65.4z"/>
		<path d="M106.2,95.7c-1,0.3-1.9,0.6-2.9,0.8c-0.1-0.3-0.2-0.5-0.3-0.8c1-0.4,2-0.7,2.9-1C106.1,95,106.1,95.4,106.2,95.7z"/>
		<path d="M110.7,69.9c-0.4-0.4-0.8-0.8-1.2-1.2c0.2-0.3,0.5-0.5,0.7-0.8c0.5,0.4,0.9,0.7,1.4,1.1C111.2,69.3,111,69.6,110.7,69.9z"
			/>
		<path d="M103.6,93.3c-0.7-0.2-1.5-0.4-2.2-0.5c-0.1-0.1-0.2-0.3-0.3-0.4c1.2-1.1,2.1-0.3,2.8,0.7
			C103.8,93.1,103.7,93.2,103.6,93.3z"/>
		<path d="M103.9,93c0,0.1,0.1,0.3,0.1,0.4c-0.1-0.1-0.3-0.1-0.4-0.2C103.7,93.2,103.8,93.1,103.9,93z"/>
		<polygon points="89,93.7 89,93.8 89.1,93.7 		"/>
		<path class="st0" d="M111.6,59.3c2.5-1.3,5.1-1.8,7.5,0.5C116.6,59.6,114.1,59.4,111.6,59.3L111.6,59.3z"/>
		<polygon class="st0" points="117.4,61.7 117.2,61.7 117.4,61.7 		"/>
		<path class="st0" d="M84.6,92c0.2,0,0.5,0,0.7,0C85.1,92,84.8,92,84.6,92z"/>
		<path class="st0" d="M85.9,89.5c-0.2-0.2-0.4-0.4-0.7-0.7C85.5,89.1,85.7,89.3,85.9,89.5z"/>
		<path class="st0" d="M85.3,88.9c0.1-0.2,0.1-0.3,0.2-0.5c0-0.1-0.1-0.1-0.2-0.2C85.3,88.5,85.3,88.7,85.3,88.9z"/>
	</g>
</g>
</svg>
