<?xml version="1.0" encoding="utf-8"?>
<!-- Generator: Adobe Illustrator 23.1.0, SVG Export Plug-In . SVG Version: 6.00 Build 0)  -->
<svg version="1.1" id="Layer_1" xmlns="http://www.w3.org/2000/svg" xmlns:xlink="http://www.w3.org/1999/xlink" x="0px" y="0px"
	 viewBox="0 0 288 330" style="enable-background:new 0 0 288 330;" xml:space="preserve">
<style type="text/css">
	.st0{fill:#FFFFFF;}
</style>
<g>
	<g>
		<path class="st0" d="M255,320c-83.33,0-166.67,0-250,0C5,220,5,120,5,20c83.33,0,166.67,0,250,0C255,120,255,220,255,320z
			 M166.05,312.01c-1.32-0.83-2.64-1.65-3.96-2.48c-0.26,0.54-0.52,1.07-0.78,1.61c0.63,2.64,2.24,2.75,4.65,0.78
			c0.85,0.15,1.69,0.29,2.54,0.44c0.09-0.27,0.18-0.54,0.27-0.82c-0.88-0.46-1.76-0.92-3.02-1.57
			C165.92,311.09,165.99,311.55,166.05,312.01z M182.09,295.09c-2.29,0.47-4.59,0.93-7.2,1.46c0.41,1.04,0.85,2.16,1.21,3.09
			c1.52-0.48,2.92-0.57,3.78-1.3c0.96-0.81,1.43-2.21,2.11-3.35c1.36-0.41,2.72-0.82,4.08-1.23c-0.13-0.45-0.25-0.89-0.38-1.34
			c-1.25,0.2-2.5,0.4-3.74,0.6c-4.84-13.93-7.76-28.16-6.42-42.67c1.83-1.22,4.06-2.54,4.45-4.26c0.73-3.25-1.2-5.65-4.28-6.87
			c-2.82,1.15-6.33,5.97-6.65,10.16c-0.56,7.29-1.32,14.67-0.73,21.91c0.56,6.97,2.73,13.82,4.19,20.72c0.51-0.1,1.02-0.2,1.54-0.3
			c-0.15-1.24-0.17-2.52-0.48-3.72c-3.14-12.24-3.67-24.65-2.44-37.17c0.31-3.12,0.7-6.14,4.73-6.73c-0.76-0.85-1.27-1.42-1.78-1.98
			c0.45-0.28,0.9-0.56,1.35-0.84c0.95,1.71,1.9,3.41,3.35,6.03c-2.64-0.13-3.79-0.18-5.1-0.24c0,3.72,0.28,7.2-0.05,10.62
			c-0.96,9.99,1,19.55,4.1,28.9c0.78,2.34,2.86,4.25,4.34,6.35C182.07,293.63,182.08,294.36,182.09,295.09z M159.08,302.91
			c0.06,0.25,0.13,0.5,0.06,0.22c0.22,0.23,0.04,0.04-0.14-0.15c-1.25-18.51-1.4-37.18-8.36-54.95c-0.49,0.76-0.94,1.47-1.39,2.18
			c-0.33-0.06-0.66-0.12-0.98-0.17c0.13-1.68-0.33-3.84,0.54-4.92c0.97-1.2,3.15-1.41,4.95-2.11c-2.58-2.35-5.01-1.9-6.98,0.83
			c-2.41,3.32-0.88,6.92,4.59,9.81c1.12,7.98,2.22,16.52,3.55,25.03C156.18,286.76,157.68,294.83,159.08,302.91z M210.96,133.05
			c-0.11-0.17-0.22-0.34-0.19-0.29c-0.05-0.04,0.11,0.09,0.27,0.21c0.27,0.76,0.46,1.57,0.82,2.29c5.98,11.98,6.52,24.29,1.93,36.76
			c-0.98,2.65-3.17,4.85-4.8,7.25c6.96-15.34,5.06-30.17,0.06-46c2.82-10.2-0.98-22.41,5.38-32.86c3.22-0.97,6.36-2.05,9.57-2.86
			c13.32-3.36,17.51-14.74,11.64-26.44c-3.94-7.85-8.41-15.58-13.68-22.58c-6.35-8.41-14.43-14.73-26.04-14.07
			c-4.47,0.25-8.97,0.04-12.57,0.04c-6.12-3.73-11.33-7.84-17.23-10.28c-9.17-3.78-18.58-1.76-27.78,1.05
			c-5.53,1.69-11.15,3.08-16.74,4.57c-2.56,0.68-5.28,0.98-7.68,2.01c-1.94,0.83-3.51,2.5-6.02,4.38c4.86-1.32,8.32-2.32,11.81-3.19
			c5.78-1.44,12.02-1.85,17.28-4.35c15.38-7.33,28.87-4.54,42.03,6.06c-1.43,0.11-2.4,0.07-3.31,0.28
			c-5.63,1.32-11.89,1.55-16.74,4.28c-10.85,6.1-21.12,13.29-31.38,20.39c-3.93,2.71-7.57,6.05-10.71,9.66
			c-7.2,8.27-13.98,16.89-20.99,25.32c-0.87,1.05-2.13,1.78-3.41,2.82c-0.54-6.02-0.71-11.52-1.57-16.9
			c-1.55-9.67-1.31-18.26,7.71-24.97c4.6-3.42,7.83-8.68,8.31-15.13c-4.4,5.37-8.12,10.96-12.88,15.44
			c-4.66,4.38-7.07,9.08-6.52,15.37c0.85,9.76,1.68,19.52,2.58,30.06c-2.04,1.77-4.29,3.93-6.76,5.82
			c-5.45,4.17-8.75,9.69-9.6,16.35c-0.58,4.56-0.23,9.26-0.08,13.89c0.21,6.27,3.32,10.62,9.16,13.05c0.88,0.37,1.56,1.22,1.74,1.37
			c-3.92,3.23-8.6,5.54-10.75,9.3c-2.22,3.88-1.97,9.17-2.89,14.3c-5.22,1.58-9.61,5.01-11.71,11.6c1.01-0.29,1.67-0.48,2.32-0.67
			c-0.94,6.86-0.87,7.14,1.28,8.38c1.16,4.65,2.14,8.56,3.37,13.51c-1.46,0.38-3.51,1.05-5.6,1.44
			c-10.51,1.97-18.89,7.17-24.67,16.24c-10.56,16.6-13.05,35.01-11.76,54.18c0.19,2.9,0.98,5.75,1.6,9.26
			c0.75-0.89,0.93-1.01,0.92-1.12c-0.03-0.82-0.06-1.63-0.14-2.45c-1.9-18.93,0.3-37.18,8.63-54.51
			c5.25-10.92,14.06-16.98,25.61-19.43c2.21-0.47,4.73-0.85,6.8-0.24c4.93,1.45,9.74,3.39,14.49,5.38
			c6.61,2.77,13.11,5.77,19.66,8.67c-9.91-8.18-21.42-13.04-33.7-16.33c-0.04-0.51-0.08-1.02-0.12-1.53
			c5.07-2.11,10.14-4.22,15.79-6.58c0-0.01,0.07-1.07,0.15-2.46c1.59-0.33,3.12-1.11,4.44-0.85c6.97,1.39,14.53,1.79,20.66,4.92
			c7.24,3.71,13.53,9.52,19.69,15.03c8.19,7.31,15.61,15.46,25.37,20.88c6.25,3.47,10.16,2.83,12.58-3.91
			c3.1-8.62,5.04-17.65,7.48-26.5c-0.55-0.17-1.09-0.33-1.64-0.5c-1.19,3.53-2.47,7.03-3.54,10.6c-1.44,4.77-2.49,9.66-4.14,14.35
			c-0.95,2.71-2.15,5.72-7.36,6.28c-8.76-7.65-18.5-15.67-27.65-24.31c-9.09-8.58-18.47-16.34-31.22-18.65
			c-0.22-0.04-0.37-0.46-0.56-0.72c2.27-3.43,4.61-6.81,6.79-10.28c2.18-3.48,4.72-6.86,6.17-10.64c1.47-3.83,1.8-8.09,2.7-12.48
			c4.22,7.29,7.88,14.41,12.3,21.04c4.15,6.23,8.86,12.66,16.63,14.35c8.61,1.88,17.26,0.95,25.17-3.6c1.09-0.62,2.2-1.21,2.96-1.63
			c1.16,4.45,2.26,8.64,3.24,12.4c2.53,0.59,3.97,0.93,5.55,1.3c0.59,1.3,1.18,2.62,1.33,2.94c2.86,0.26,5.01,0.46,7.06,0.65
			c0,4.61,0.62,8.38-0.12,11.87c-2.22,10.44-4.97,20.76-7.52,31.12c7.17-11.37,8.55-24.57,9.73-38.01
			c7.11,2.87,13.43,5.01,19.34,7.97c3.25,1.63,6.76,4.08,8.5,7.11c4.13,7.23,6.8,15.14,7.09,23.68c0.2,5.99,0.57,11.99,1.22,17.94
			c0.7,6.43,1.81,12.81,2.75,19.21c0.41-0.05,0.82-0.1,1.23-0.16c0-1.14,0.07-2.29-0.01-3.43c-0.76-11.46-1.02-22.99-2.49-34.37
			c-0.95-7.32-3.33-14.53-5.69-21.58c-1.88-5.61-6.09-9.29-11.85-11.32c-6.25-2.2-12.34-4.85-18.9-7.47
			c0.81-7.66-8.45-4.04-10.07-8.95c-2.2-0.14-3.99-0.25-6.31-0.4c-0.52-3.86-1.02-7.58-1.59-11.86
			c10.84-4.11,13.77-15.49,21.72-22.73c1.07,2.27,1.85,4.06,2.74,5.78c2,3.87,4.75,7.34,9.39,7.16c4.49-0.18,6.72-3.9,8.26-7.75
			c4.17-10.47,4.18-21.18,0.98-31.8C215.35,138.42,212.78,135.85,210.96,133.05z M164.41,298.77c0.59-0.19,1.18-0.38,1.77-0.58
			c-3.83-17.19-5.76-34.82-11.38-51.6c-0.44,0.1-0.87,0.2-1.31,0.3C157.13,264.19,160.77,281.48,164.41,298.77z M157.24,316.09
			c0.69,0.13,1.39,0.27,2.08,0.4c0.18-2.59,0.36-5.18,0.54-7.77c-0.43-0.06-0.85-0.11-1.28-0.17
			C158.13,311.06,157.68,313.58,157.24,316.09z M170.35,310.27c0.14-0.45,0.28-0.9,0.42-1.35c-1.07-0.32-2.14-0.64-3.21-0.96
			c-0.12,0.41-0.24,0.82-0.36,1.22C168.25,309.55,169.3,309.91,170.35,310.27z"/>
		<path d="M210.96,133.05c1.82,2.8,4.39,5.37,5.31,8.43c3.19,10.62,3.18,21.33-0.98,31.8c-1.53,3.85-3.77,7.57-8.26,7.75
			c-4.64,0.18-7.39-3.29-9.39-7.16c-0.9-1.73-1.67-3.52-2.74-5.78c-7.95,7.24-10.87,18.62-21.72,22.73c0.57,4.29,1.07,8,1.59,11.86
			c2.32,0.15,4.12,0.26,6.31,0.4c1.63,4.92,10.89,1.29,10.07,8.95c6.56,2.61,12.65,5.27,18.9,7.47c5.76,2.03,9.97,5.7,11.85,11.32
			c2.36,7.05,4.75,14.26,5.69,21.58c1.47,11.37,1.74,22.9,2.49,34.37c0.08,1.14,0.01,2.29,0.01,3.43c-0.41,0.05-0.82,0.1-1.23,0.16
			c-0.93-6.4-2.05-12.78-2.75-19.21c-0.65-5.95-1.02-11.95-1.22-17.94c-0.29-8.55-2.96-16.45-7.09-23.68
			c-1.73-3.03-5.25-5.49-8.5-7.11c-5.91-2.96-12.23-5.1-19.34-7.97c-1.18,13.44-2.56,26.64-9.73,38.01
			c2.54-10.36,5.3-20.68,7.52-31.12c0.74-3.48,0.12-7.26,0.12-11.87c-2.05-0.19-4.2-0.39-7.06-0.65c-0.14-0.32-0.74-1.64-1.33-2.94
			c-1.58-0.37-3.02-0.71-5.55-1.3c-0.98-3.76-2.08-7.95-3.24-12.4c-0.76,0.42-1.87,1.01-2.96,1.63c-7.91,4.54-16.56,5.47-25.17,3.6
			c-7.77-1.69-12.48-8.12-16.63-14.35c-4.41-6.63-8.08-13.75-12.3-21.04c-0.9,4.39-1.23,8.65-2.7,12.48
			c-1.45,3.78-3.99,7.16-6.17,10.64c-2.18,3.47-4.52,6.85-6.79,10.28c0.19,0.26,0.34,0.68,0.56,0.72
			c12.75,2.32,22.12,10.07,31.22,18.65c9.15,8.64,18.9,16.66,27.65,24.31c5.21-0.56,6.41-3.57,7.36-6.28
			c1.65-4.69,2.71-9.58,4.14-14.35c1.07-3.56,2.36-7.07,3.54-10.6c0.55,0.17,1.09,0.33,1.64,0.5c-2.44,8.85-4.38,17.89-7.48,26.5
			c-2.42,6.74-6.33,7.38-12.58,3.91c-9.76-5.42-17.18-13.57-25.37-20.88c-6.17-5.5-12.45-11.32-19.69-15.03
			c-6.13-3.14-13.69-3.54-20.66-4.92c-1.32-0.26-2.85,0.52-4.44,0.85c-0.08,1.39-0.15,2.45-0.15,2.46
			c-5.66,2.36-10.72,4.47-15.79,6.58c0.04,0.51,0.08,1.02,0.12,1.53c12.28,3.28,23.78,8.15,33.7,16.33
			c-6.55-2.9-13.06-5.9-19.66-8.67c-4.75-1.99-9.56-3.93-14.49-5.38c-2.07-0.61-4.6-0.23-6.8,0.24
			c-11.55,2.45-20.36,8.52-25.61,19.43c-8.33,17.33-10.54,35.58-8.63,54.51c0.08,0.81,0.12,1.63,0.14,2.45
			c0,0.11-0.18,0.23-0.92,1.12c-0.62-3.51-1.4-6.36-1.6-9.26c-1.28-19.17,1.2-37.58,11.76-54.18c5.77-9.08,14.16-14.28,24.67-16.24
			c2.1-0.39,4.14-1.06,5.6-1.44c-1.24-4.95-2.21-8.87-3.37-13.51c-2.15-1.24-2.22-1.52-1.28-8.38c-0.65,0.19-1.31,0.38-2.32,0.67
			c2.1-6.59,6.49-10.02,11.71-11.6c0.91-5.13,0.67-10.42,2.89-14.3c2.15-3.76,6.83-6.07,10.75-9.3c-0.18-0.15-0.86-1-1.74-1.37
			c-5.84-2.43-8.94-6.78-9.16-13.05c-0.16-4.63-0.5-9.33,0.08-13.89c0.85-6.66,4.16-12.18,9.6-16.35c2.47-1.89,4.72-4.05,6.76-5.82
			c-0.91-10.54-1.74-20.3-2.58-30.06c-0.55-6.29,1.86-10.98,6.52-15.37c4.76-4.48,8.48-10.07,12.88-15.44
			c-0.49,6.45-3.71,11.71-8.31,15.13c-9.01,6.71-9.26,15.3-7.71,24.97c0.86,5.39,1.04,10.88,1.57,16.9
			c1.28-1.04,2.54-1.77,3.41-2.82c7.01-8.43,13.8-17.05,20.99-25.32c3.14-3.61,6.78-6.94,10.71-9.66
			c10.27-7.09,20.53-14.28,31.38-20.39c4.85-2.73,11.11-2.96,16.74-4.28c0.91-0.21,1.88-0.17,3.31-0.28
			c-13.16-10.6-26.65-13.39-42.03-6.06c-5.26,2.51-11.5,2.92-17.28,4.35c-3.49,0.87-6.96,1.87-11.81,3.19
			c2.5-1.87,4.08-3.55,6.02-4.38c2.41-1.03,5.12-1.33,7.68-2.01c5.59-1.49,11.21-2.88,16.74-4.57c9.2-2.81,18.61-4.83,27.78-1.05
			c5.9,2.43,11.11,6.55,17.23,10.28c3.59,0,8.09,0.21,12.57-0.04c11.61-0.65,19.69,5.66,26.04,14.07c5.28,7,9.74,14.73,13.68,22.58
			c5.87,11.7,1.68,23.08-11.64,26.44c-3.21,0.81-6.35,1.89-9.57,2.86c-6.36,10.44-2.56,22.66-5.38,32.86c5,15.83,6.9,30.66-0.06,46
			c1.63-2.41,3.82-4.6,4.8-7.25c4.59-12.46,4.05-24.78-1.93-36.76c-0.36-0.72-0.55-1.52-0.82-2.29L210.96,133.05z M76.95,138.05
			c-0.07-0.43-0.14-0.86-0.04-0.21c-0.41-0.55-0.15-0.2,0.11,0.15c-0.17,6.17,3.83,9.17,8.97,11.32
			C82.99,145.55,79.97,141.8,76.95,138.05z M115.02,83.04c-5.34,5.84-10.67,11.68-16.01,17.53c6.79-4.57,13.13-9.54,15.93-17.62
			c0.2-0.09,0.4-0.19,0.17-0.08C115.27,82.59,115.14,82.82,115.02,83.04z M110.94,94.91c-8.84,7.99-17.67,15.98-26.52,23.95
			c-3.88,3.5-4.54,5.95-2.79,10.82c0.91-6.38,1.2-6.9,6.51-10.96c1.85-1.41,3.81-2.68,5.58-4.17c6.69-5.66,13.54-11.21,17.16-19.58
			l0.21-0.17L110.94,94.91z M94.8,138.81c-7.68,9.18-9.9,19.73-7.66,31.29c1.11,5.7,3.9,10.38,10.08,13.68
			c-6.37-11.03-7.15-22.08-5.3-33.45c0.63-3.89,1.83-7.68,2.77-11.52l0.29,0.03L94.8,138.81z M207.9,110.08
			c1.13-2.71,2.26-5.42,3.17-7.6c-1.23-1.88-2.06-3.16-2.89-4.43c0.3-0.17,0.61-0.35,0.91-0.52c0.77,0.4,1.55,0.79,2.32,1.19
			c0.29-0.45,0.58-0.9,0.87-1.35c-1.59-1.01-3.11-2.7-4.8-2.9c-3.06-0.36-6.25-0.01-9.34,0.35c-3.53,0.41-7.01,1.14-11.54,1.9
			c0.87-3.09,1.38-4.9,1.78-6.32c6.94-3.65,13.64-4.76,20.83-2.55c0.66-1.14,1.22-2.11,1.87-3.24c-6.52-13.8-12.8-27.61-27.75-34.31
			c-7.57,6.92-14.97,13.68-21.86,19.98c4.78,4.6,9.46,9.1,14.5,13.94c-1.59,2.6-2.7,4.41-4.02,6.58
			c-7.88-5.03-12.9-12.94-22.55-14.81c-6.65,3.4-14.11,4.6-21.45,1.33c-0.33,4.39,0.16,8.43-1.05,11.87
			c-2.4,6.84-5.74,13.36-8.7,20.01c-0.73,1.65-1.56,3.26-2.24,4.93c-1.11,2.7-2.13,5.44-3.38,8.67c-2.14-4.08-3.74-7.12-5.32-10.11
			c-1.54,3.07-2.88,5.74-4.43,8.83c0.83,1.48,1.95,3.45,3.31,5.85c-1.45,1.1-2.66,2.02-4.34,3.31c-1.15-1.76-1.96-3.02-3.23-4.97
			c1.98,0.52,3.01,0.79,4.62,1.22c-1.3-2.36-2.22-4.04-3.08-5.6c1.69-2.89,3.19-5.44,4.68-7.98c-0.31-0.18-0.62-0.35-0.93-0.53
			c-4.22,3.68-8.45,7.36-12.7,11.07c2.03,3.55,3.99,6.98,6.03,10.53c1.07-0.14,2.29-0.31,4.08-0.55c-0.73,1.71-1.22,2.86-1.71,4.02
			c0.37,0.39,0.75,0.78,1.12,1.18c2.5-1.79,5.01-3.58,7.77-5.56c2.03,9.43,4.95,18.15,10.8,25.37c3.64,4.49,7.85,8.66,12.39,12.24
			c7.41,5.83,14.84,11.92,23.1,16.32c11.38,6.05,22.3,1.78,29.09-9.16c3.31-5.32,7.71-9.96,11.42-15.05c2.1-2.89,4.36-5.86,5.6-9.15
			c5.34-14.18,7.27-28.98,7.17-44.09C207.99,109.97,207.9,110.08,207.9,110.08z M202.77,37.81c0.01-0.35,0.02-0.71,0.03-1.06
			c-10.09,0.49-20.22,0.63-30.27,1.61c-5.04,0.49-10.56,1.48-14.78,4.03c-11.79,7.14-23.06,15.13-34.42,22.96
			c-2.33,1.6-4.14,3.95-6.84,6.6c6.18,1.83,11.17,3.74,16.34,4.69c3.12,0.57,6.71,0.28,9.74-0.71
			c14.34-4.65,25.31-14.19,35.64-24.78c3.28-3.36,7.54-5.94,11.71-8.19C193.97,40.79,198.47,39.5,202.77,37.81z M209.01,137.36
			c-3.11,9.65-5.89,18.27-8.82,27.37c1.09,4.17,2.48,8.69,8.26,11.2C211.88,163.11,211.51,150.74,209.01,137.36z M109.5,154.29
			c-0.53,4.59-0.62,9.8-1.85,14.73c-1.19,4.77-3.54,9.24-5.24,13.48C108.96,180.3,112.6,166.39,109.5,154.29z M76.03,171.96
			c0.41,0.28,0.81,0.56,1.22,0.85c1.55-2.14,3.11-4.27,4.66-6.41c-0.44-0.31-0.88-0.61-1.32-0.92
			C79.07,167.64,77.55,169.8,76.03,171.96z M79.63,162.73c-0.2-0.26-0.4-0.51-0.6-0.77c-0.99,0.78-1.97,1.55-2.96,2.33
			c0.2,0.26,0.4,0.52,0.61,0.78C77.66,164.29,78.65,163.51,79.63,162.73z M212.09,87.37c-0.27,0-0.5,0-0.73,0
			c0.05,0.13,0.1,0.26,0.16,0.39C211.7,87.63,211.89,87.5,212.09,87.37z"/>
		<path d="M182.06,292.91c-1.48-2.11-3.56-4.01-4.34-6.35c-3.1-9.35-5.06-18.91-4.1-28.9c0.33-3.42,0.05-6.89,0.05-10.62
			c1.31,0.06,2.46,0.12,5.1,0.24c-1.46-2.62-2.41-4.33-3.35-6.03c-0.45,0.28-0.9,0.56-1.35,0.84c0.51,0.57,1.02,1.14,1.78,1.98
			c-4.03,0.59-4.42,3.61-4.73,6.73c-1.23,12.53-0.7,24.93,2.44,37.17c0.31,1.2,0.33,2.48,0.48,3.72c-0.51,0.1-1.02,0.2-1.54,0.3
			c-1.46-6.9-3.63-13.74-4.19-20.72c-0.59-7.24,0.17-14.62,0.73-21.91c0.32-4.19,3.83-9,6.65-10.16c3.08,1.22,5.01,3.62,4.28,6.87
			c-0.39,1.73-2.61,3.04-4.45,4.26c-1.34,14.51,1.58,28.74,6.42,42.67L182.06,292.91z"/>
		<path d="M159.08,302.91c-1.4-8.08-2.9-16.14-4.16-24.24c-1.33-8.51-2.43-17.05-3.55-25.03c-5.47-2.89-7-6.49-4.59-9.81
			c1.97-2.72,4.4-3.18,6.98-0.83c-1.8,0.7-3.98,0.91-4.95,2.11c-0.87,1.08-0.42,3.23-0.54,4.92c0.33,0.06,0.66,0.12,0.98,0.17
			c0.45-0.71,0.9-1.41,1.39-2.18c6.96,17.77,7.11,36.44,8.36,54.95L159.08,302.91z"/>
		<path d="M164.41,298.77c-3.64-17.29-7.28-34.58-10.91-51.87c0.44-0.1,0.87-0.2,1.31-0.3c5.61,16.78,7.54,34.41,11.38,51.6
			C165.59,298.39,165,298.58,164.41,298.77z"/>
		<path d="M182,294.99c-0.68,1.14-1.15,2.54-2.11,3.35c-0.86,0.73-2.27,0.82-3.78,1.3c-0.36-0.93-0.8-2.05-1.21-3.09
			c2.61-0.53,4.9-1,7.2-1.46L182,294.99z"/>
		<path d="M157.24,316.09c0.45-2.51,0.89-5.02,1.34-7.54c0.43,0.06,0.85,0.11,1.28,0.17c-0.18,2.59-0.36,5.18-0.54,7.77
			C158.62,316.36,157.93,316.22,157.24,316.09z"/>
		<path d="M165.96,311.92c-2.41,1.98-4.02,1.87-4.65-0.78c0.26-0.54,0.52-1.07,0.78-1.61c1.32,0.83,2.64,1.65,3.96,2.48
			L165.96,311.92z"/>
		<path d="M182.09,295.09c-0.01-0.73-0.02-1.45-0.03-2.18l-0.11,0.11c1.25-0.2,2.5-0.4,3.74-0.6c0.13,0.45,0.25,0.89,0.38,1.34
			c-1.36,0.41-2.72,0.82-4.08,1.23L182.09,295.09z"/>
		<path d="M170.35,310.27c-1.05-0.36-2.1-0.72-3.15-1.08c0.12-0.41,0.24-0.82,0.36-1.22c1.07,0.32,2.14,0.64,3.21,0.96
			C170.63,309.37,170.49,309.82,170.35,310.27z"/>
		<path d="M166.05,312.01c-0.07-0.46-0.14-0.93-0.3-2.04c1.26,0.66,2.14,1.12,3.02,1.57c-0.09,0.27-0.18,0.54-0.27,0.82
			c-0.85-0.15-1.69-0.29-2.54-0.44L166.05,312.01z"/>
		<path d="M158.99,302.97c0.18,0.19,0.36,0.38,0.14,0.15c0.07,0.28,0.01,0.03-0.06-0.22L158.99,302.97z"/>
		<path d="M211.04,132.97c-0.16-0.12-0.32-0.25-0.27-0.21c-0.03-0.05,0.08,0.12,0.19,0.29L211.04,132.97z"/>
		<path class="st0" d="M207.99,109.97c0.1,15.1-1.82,29.91-7.17,44.09c-1.24,3.29-3.5,6.26-5.6,9.15
			c-3.71,5.09-8.11,9.72-11.42,15.05c-6.8,10.95-17.71,15.21-29.09,9.16c-8.26-4.39-15.69-10.49-23.1-16.32
			c-4.54-3.57-8.75-7.75-12.39-12.24c-5.85-7.22-8.77-15.94-10.8-25.37c-2.77,1.98-5.27,3.77-7.77,5.56
			c-0.37-0.39-0.75-0.78-1.12-1.18c0.49-1.15,0.98-2.31,1.71-4.02c-1.79,0.24-3.01,0.41-4.08,0.55c-2.03-3.55-3.99-6.98-6.03-10.53
			c4.25-3.71,8.47-7.39,12.7-11.07c0.31,0.18,0.62,0.35,0.93,0.53c-1.49,2.55-2.99,5.1-4.68,7.98c0.86,1.56,1.78,3.24,3.08,5.6
			c-1.61-0.43-2.64-0.7-4.62-1.22c1.27,1.96,2.09,3.21,3.23,4.97c1.68-1.28,2.89-2.2,4.34-3.31c-1.36-2.4-2.48-4.38-3.31-5.85
			c1.55-3.09,2.89-5.76,4.43-8.83c1.57,3,3.17,6.03,5.32,10.11c1.25-3.23,2.28-5.96,3.38-8.67c0.68-1.67,1.51-3.28,2.24-4.93
			c2.96-6.65,6.29-13.17,8.7-20.01c1.21-3.44,0.72-7.48,1.05-11.87c7.34,3.26,14.8,2.07,21.45-1.33
			c9.65,1.87,14.68,9.78,22.55,14.81c1.32-2.16,2.43-3.98,4.02-6.58c-5.03-4.84-9.72-9.35-14.5-13.94
			c6.89-6.3,14.29-13.06,21.86-19.98c14.95,6.7,21.23,20.51,27.75,34.31c-0.65,1.13-1.21,2.1-1.87,3.24
			c-7.19-2.22-13.89-1.1-20.83,2.55c-0.4,1.42-0.91,3.23-1.78,6.32c4.53-0.76,8.02-1.5,11.54-1.9c3.1-0.36,6.28-0.71,9.34-0.35
			c1.69,0.2,3.21,1.88,4.8,2.9c-0.29,0.45-0.58,0.9-0.87,1.35c-0.77-0.4-1.55-0.79-2.32-1.19c-0.3,0.17-0.61,0.35-0.91,0.52
			c0.83,1.27,1.66,2.54,2.89,4.43c-0.91,2.18-2.04,4.89-3.17,7.6c-0.64-2.11-1.58-4.18-1.84-6.34c-0.4-3.24-2.35-4.56-5.19-4.94
			c-3.63-0.49-7.13-0.25-9.84,2.71c0.28,0.13,0.55,0.26,0.83,0.39l-0.09-0.09c-2.21,1.71-4.42,3.42-7.24,5.6
			c2.71,0.91,4.26,1.42,5.82,1.95c-0.62,0.86-1.23,1.71-2.27,3.15c4.34,0,7.97,0,11.7,0c0.57-2.6,1.03-4.68,1.48-6.75l-0.08,0.07
			c1.15,1.73,2.29,3.47,3.53,5.34C205.85,110.75,206.92,110.36,207.99,109.97z M178.85,157.17c0.21,0.09,0.42,0.19,0.66,0.29
			c-0.08-0.27-0.16-0.5-0.23-0.73c-1.24-1.6-2.55-2.86-4.57-1.06c-1.44,0.12-2.88,0.24-4.32,0.37c0.08-0.34,0.16-0.68,0.24-1.02
			c-2.45-1.06-4.81-2.45-7.36-3.11c-4.71-1.2-9.53-1.97-14.3-2.93c-0.97-1.24-1.95-2.48-3.39-4.32c-1.5,0.8-3.7,1.98-5.9,3.15
			c0.13,0.33,0.26,0.66,0.38,0.99c1.49-0.19,2.98-0.37,4.73-0.6c1.11,2.37,2.15,4.57,3.19,6.78c0.72,11.53,17.54,21.74,22.6,15.2
			c-11.16,0.37-17.66-5.69-21.59-15.28c2.08,0.96,4.16,1.91,6.24,2.87l-0.16,0.23l0.07-0.16c-1.73-2.3-3.46-4.6-5.18-6.91
			c3.11,1.03,6.18,2.2,9.34,3.05c3.98,1.07,8.03,1.87,12.05,2.79c-0.02,0.47-0.03,0.94-0.05,1.42c1.3-0.64,2.61-1.27,3.91-1.91
			C176.42,156.58,177.64,156.88,178.85,157.17z M140.42,99.9c1.88,0.72,3.59,1.37,5.27,2.01c-2.44,1.23-4.54,2.29-6.64,3.35
			c0.14,0.47,0.29,0.94,0.43,1.41c4.34,0.75,8.68,1.5,13.09,2.26c1.6-2.68,2.97-4.97,4.41-7.4c1.82,1.58,3.62,3.13,5.41,4.68
			c0.33-0.36,0.66-0.72,0.99-1.08c-1.84-5.13-6.15-8.13-11.12-9.68c-6.55-2.04-12.85-0.58-18.54,2.91c-0.3,0.58-0.59,1.16-0.89,1.74
			c1.01,0.91,2.03,1.83,3.02,2.72C137.91,101.51,139,100.81,140.42,99.9z M189.71,138.85c4.8-5.17,4.36-9.45-0.44-12.93
			c-1.78-1.29-3.76-3.03-4.42-4.98c-2.08-6.18-3.45-12.54,1.04-18.48c0.33-0.44,0.04-1.34,0.04-2.29
			c-6.61,5.24-7.5,14.11-2.83,23.89c-1.78,1.29-3.54,2.57-6.21,4.49C190.14,127.29,191.66,128.54,189.71,138.85z M178.66,146.12
			c-1.4-1.31-2.44-2.29-2.61-2.45c-4.39-0.92-7.66-1.61-10.64-2.23c-0.4-2.3-0.62-3.59-0.84-4.87c-0.32-0.04-0.63-0.09-0.95-0.13
			c-0.65,1.18-1.3,2.36-1.78,3.21c2.47,6.06,7.3,5.77,11.86,5.74c4.67,4.61,11.02,2.84,13.56-3.7
			C184.34,143.19,181.47,144.67,178.66,146.12z M164.18,98.31c-7.16-11.53-24.03-13.82-28.92-4.78
			C145.99,85.49,154.56,92.69,164.18,98.31z M162.64,160.87c6.51,6.79,8.38,6.94,11.25,1.39c-1.71,0.61-3.21,1.15-4.6,1.65
			C166.95,162.84,164.79,161.86,162.64,160.87z M158.1,111.84c-0.2-0.6-0.4-1.19-0.6-1.79c-1.97,0.68-3.93,1.36-5.9,2.04
			c0.14,0.45,0.29,0.89,0.43,1.34C154.06,112.91,156.08,112.38,158.1,111.84z M183.01,161.08c-0.11-0.55-0.22-1.11-0.33-1.66
			c-1.59,0.57-3.18,1.13-4.77,1.7c0.15,0.45,0.3,0.89,0.44,1.34C179.91,162,181.46,161.54,183.01,161.08z M190.29,119.11
			c0.47-0.49,0.94-0.99,1.41-1.48c-0.74-0.58-1.49-1.16-2.23-1.75c-0.39,0.41-0.77,0.83-1.16,1.24
			C188.97,117.79,189.63,118.45,190.29,119.11z"/>
		<path class="st0" d="M202.77,37.81c-4.3,1.68-8.8,2.98-12.83,5.15c-4.18,2.25-8.44,4.83-11.71,8.19
			c-10.33,10.59-21.31,20.14-35.64,24.78c-3.03,0.98-6.63,1.28-9.74,0.71c-5.17-0.95-10.16-2.86-16.34-4.69
			c2.7-2.65,4.51-5,6.84-6.6c11.36-7.83,22.63-15.83,34.42-22.96c4.22-2.55,9.73-3.54,14.78-4.03c10.05-0.98,20.17-1.12,30.27-1.61
			C202.79,37.11,202.78,37.46,202.77,37.81z"/>
		<path class="st0" d="M209.01,137.36c2.5,13.37,2.87,25.74-0.56,38.57c-5.78-2.52-7.17-7.03-8.26-11.2
			C203.12,155.64,205.9,147.01,209.01,137.36z"/>
		<path class="st0" d="M94.7,138.82c-0.94,3.84-2.14,7.63-2.77,11.52c-1.85,11.36-1.08,22.42,5.3,33.45
			c-6.19-3.3-8.98-7.98-10.08-13.68c-2.24-11.56-0.02-22.12,7.66-31.29C94.8,138.81,94.7,138.82,94.7,138.82z"/>
		<path class="st0" d="M110.89,94.98c-3.62,8.36-10.46,13.91-17.16,19.58c-1.77,1.5-3.73,2.76-5.58,4.17
			c-5.31,4.06-5.61,4.57-6.51,10.96c-1.75-4.87-1.1-7.32,2.79-10.82c8.85-7.97,17.68-15.97,26.52-23.95L110.89,94.98z"/>
		<path class="st0" d="M109.5,154.29c3.1,12.1-0.54,26.01-7.09,28.21c1.69-4.23,4.05-8.71,5.24-13.48
			C108.88,164.09,108.97,158.88,109.5,154.29z"/>
		<path class="st0" d="M114.94,82.95c-2.8,8.08-9.14,13.04-15.93,17.62c5.34-5.84,10.67-11.68,16.01-17.53L114.94,82.95z"/>
		<path class="st0" d="M76.95,138.05c3.02,3.75,6.03,7.5,9.05,11.25c-5.14-2.15-9.14-5.14-8.97-11.32L76.95,138.05z"/>
		<path class="st0" d="M76.03,171.96c1.52-2.16,3.04-4.32,4.56-6.48c0.44,0.31,0.88,0.61,1.32,0.92c-1.55,2.14-3.11,4.27-4.66,6.41
			C76.85,172.53,76.44,172.25,76.03,171.96z"/>
		<path class="st0" d="M79.63,162.73c-0.98,0.78-1.97,1.56-2.95,2.34c-0.2-0.26-0.4-0.52-0.61-0.78c0.99-0.78,1.97-1.55,2.96-2.33
			C79.23,162.22,79.43,162.48,79.63,162.73z"/>
		<path class="st0" d="M77.03,137.98c-0.26-0.35-0.53-0.7-0.11-0.15c-0.11-0.65-0.04-0.22,0.04,0.21L77.03,137.98z"/>
		<path class="st0" d="M212.09,87.37c-0.2,0.13-0.39,0.26-0.58,0.39c-0.05-0.13-0.1-0.26-0.16-0.39
			C211.59,87.37,211.82,87.37,212.09,87.37z"/>
		<path class="st0" d="M115.02,83.04c0.12-0.22,0.24-0.45,0.09-0.17c0.23-0.11,0.03-0.01-0.17,0.08L115.02,83.04z"/>
		<polygon class="st0" points="94.8,138.81 94.99,138.86 94.7,138.82 		"/>
		<polygon class="st0" points="110.94,94.91 111.1,94.81 110.89,94.98 		"/>
		<path d="M140.42,99.9c-1.42,0.91-2.52,1.62-4.58,2.94c-1-0.9-2.01-1.81-3.02-2.72c0.3-0.58,0.59-1.16,0.89-1.74
			c5.69-3.49,12-4.95,18.54-2.91c4.97,1.55,9.29,4.56,11.12,9.68c-0.33,0.36-0.66,0.72-0.99,1.08c-1.79-1.55-3.59-3.1-5.41-4.68
			c-1.45,2.43-2.82,4.72-4.41,7.4c-4.41-0.76-8.75-1.51-13.09-2.26c-0.14-0.47-0.29-0.94-0.43-1.41c2.1-1.06,4.2-2.12,6.64-3.35
			C144.01,101.27,142.3,100.62,140.42,99.9z"/>
		<path d="M191.86,101.9c-0.28-0.13-0.55-0.26-0.83-0.39c2.71-2.96,6.21-3.2,9.84-2.71c2.84,0.38,4.79,1.69,5.19,4.94
			c0.27,2.16,1.2,4.23,1.84,6.34l0.1-0.11c-1.07,0.39-2.15,0.78-3.28,1.19c-1.24-1.88-2.39-3.61-3.53-5.34l-0.2,0.06l0.28-0.12
			c-0.45,2.07-0.91,4.15-1.48,6.75c-3.72,0-7.36,0-11.7,0c1.04-1.44,1.65-2.29,2.27-3.15c-1.57-0.52-3.11-1.04-5.82-1.95
			c2.82-2.18,5.03-3.89,7.24-5.6c4.1,0.3,8.21,0.6,12.31,0.9C200.1,98.98,196,99.83,191.86,101.9z"/>
		<path d="M189.71,138.85c1.95-10.31,0.43-11.55-12.81-10.3c2.66-1.93,4.43-3.2,6.21-4.49c-4.67-9.78-3.78-18.65,2.83-23.89
			c0,0.95,0.29,1.85-0.04,2.29c-4.49,5.94-3.13,12.29-1.04,18.48c0.66,1.95,2.64,3.7,4.42,4.98
			C194.07,129.4,194.51,133.68,189.71,138.85z"/>
		<path d="M178.66,146.12c2.81-1.45,5.69-2.93,8.6-4.43c-2.53,6.54-8.89,8.32-13.56,3.7c-4.55,0.03-9.39,0.32-11.86-5.74
			c0.47-0.85,1.12-2.03,1.78-3.21c0.32,0.04,0.63,0.09,0.95,0.13c0.22,1.29,0.44,2.57,0.84,4.87c2.98,0.63,6.25,1.31,10.64,2.23
			C176.21,143.83,177.25,144.81,178.66,146.12z"/>
		<path d="M164.18,98.31c-9.62-5.62-18.19-12.82-28.92-4.78C140.14,84.49,157.02,86.78,164.18,98.31z"/>
		<path d="M148.99,154.92c3.93,9.59,10.43,15.65,21.59,15.28c-5.06,6.54-21.88-3.68-22.6-15.2l-0.06,0.03c0.39,0,0.77,0,1.16,0
			L148.99,154.92z"/>
		<path d="M148.97,149c4.77,0.95,9.59,1.72,14.3,2.93c2.55,0.65,4.91,2.05,7.36,3.11c-0.08,0.34-0.16,0.68-0.24,1.02
			c1.44-0.12,2.88-0.24,4.32-0.37c0.17,0.2,0.34,0.41,0.51,0.61c-1.3,0.64-2.61,1.27-3.91,1.91c0.02-0.47,0.03-0.94,0.05-1.42
			c-4.02-0.92-8.07-1.72-12.05-2.79c-3.16-0.85-6.23-2.02-9.34-3.05l0.11,0.11c-0.36-0.36-0.73-0.72-1.09-1.08l0.03,0.1
			c0-0.39-0.01-0.77-0.01-1.16L148.97,149z"/>
		<path d="M149.96,150.95c1.73,2.3,3.46,4.6,5.18,6.91l0.09-0.07c-2.08-0.96-4.16-1.91-6.24-2.87l0.09,0.1c-0.39,0-0.77,0-1.16,0
			c0,0,0.06-0.03,0.06-0.03c-1.04-2.2-2.07-4.41-3.19-6.78c-1.76,0.22-3.25,0.41-4.73,0.6c-0.13-0.33-0.26-0.66-0.38-0.99
			c2.2-1.17,4.4-2.35,5.9-3.15c1.45,1.84,2.42,3.08,3.39,4.32l0.03-0.08c0.09,0.12,0.28,0.25,0.26,0.35
			c-0.04,0.27-0.16,0.54-0.25,0.8c0,0-0.03-0.1-0.03-0.1c0.36,0.36,0.73,0.72,1.09,1.08L149.96,150.95z"/>
		<path d="M162.64,160.87c2.16,0.98,4.31,1.97,6.65,3.04c1.38-0.5,2.89-1.03,4.6-1.65C171.02,167.81,169.15,167.67,162.64,160.87z"
			/>
		<path d="M158.1,111.84c-2.02,0.53-4.04,1.07-6.07,1.6c-0.14-0.45-0.29-0.89-0.43-1.34c1.97-0.68,3.93-1.36,5.9-2.04
			C157.7,110.65,157.9,111.25,158.1,111.84z"/>
		<path d="M183.01,161.08c-1.55,0.46-3.1,0.92-4.65,1.38c-0.15-0.45-0.3-0.89-0.44-1.34c1.59-0.57,3.18-1.13,4.77-1.7
			C182.79,159.98,182.9,160.53,183.01,161.08z"/>
		<path d="M190.29,119.11c-0.66-0.66-1.32-1.32-1.98-1.98c0.39-0.41,0.77-0.83,1.16-1.24c0.74,0.58,1.49,1.16,2.23,1.75
			C191.23,118.13,190.76,118.62,190.29,119.11z"/>
		<path d="M178.85,157.17c-1.21-0.29-2.42-0.59-3.64-0.88c-0.17-0.2-0.34-0.41-0.51-0.61c2.02-1.8,3.34-0.54,4.57,1.06
			C179.14,156.88,178.99,157.03,178.85,157.17z"/>
		<path d="M179.28,156.74c0.07,0.23,0.14,0.46,0.23,0.73c-0.24-0.1-0.45-0.2-0.66-0.29C178.99,157.03,179.14,156.88,179.28,156.74z"
			/>
		<polygon points="155.14,157.85 155.07,158.01 155.23,157.79 		"/>
		<path class="st0" d="M191.86,101.9c4.14-2.07,8.24-2.92,12.22,0.8c-4.1-0.3-8.21-0.6-12.31-0.9L191.86,101.9z"/>
		<polygon class="st0" points="201.26,105.75 200.98,105.87 201.18,105.82 		"/>
		<path class="st0" d="M147.92,155.02c0.39,0,0.77,0,1.16,0C148.69,155.02,148.31,155.02,147.92,155.02z"/>
		<path class="st0" d="M150.06,151.05c-0.36-0.36-0.73-0.72-1.09-1.08C149.34,150.33,149.7,150.69,150.06,151.05z"/>
		<path class="st0" d="M149,150.08c0.09-0.27,0.21-0.53,0.25-0.8c0.01-0.1-0.17-0.24-0.26-0.35C149,149.31,149,149.69,149,150.08z"
			/>
	</g>
</g>
</svg>
